<svg id="TEMP_PLACE" data-name="TEMP PLACE" xmlns="http://www.w3.org/2000/svg" viewBox="0 0 499.16 61.42"><defs><style>.cls-1{fill:#ee6625;}</style></defs><title>LOGO</title><path class="cls-1" d="M33,74.22v-.08l-16.77.08L32.78,27.41H7.56L12.79,12.8H79.16L74,27.41H49.55Zm98.51-8.92L150,13H133.29Q126,33.35,125.68,34.41q-1.08,3.23-4.77,3.22H98.69c-2,0-3.08-.79-3.08-2.38a7.33,7.33,0,0,1,.54-2.45L103.23,13H86.46L78.31,36.35a25.23,25.23,0,0,0-1.69,7.29q0,8.45,13.53,8.44H119.3l-1.23,3.65a5.72,5.72,0,0,1-2.54,2.8,9.48,9.48,0,0,1-4.77,1.24H74.85L69.77,74.22h48.07Q128.37,74.22,131.53,65.3Zm78-20.1L216.39,26a13.94,13.94,0,0,0,.92-4.69,7.29,7.29,0,0,0-3-6.27,12.58,12.58,0,0,0-7.61-2.19H158.33l-5.11,14.45h41.1q3.84,0,3.84,2.46a2.2,2.2,0,0,1-.08.62l-1.51,4.59a3.41,3.41,0,0,1-1.48,2,8.74,8.74,0,0,1-3.84.61H149.59l-13,36.63,16.69.08,7.79-21.95H202Q207.34,51.19,209.49,45.2Zm61.84,29L293.17,12.8H276.48l-8.86,24.71H236.93l8.72-24.71H228.8L207,74.22H223.8l7.6-21.75h30.84l-7.67,21.75Zm74.51-5.69,13.92-39.35a27,27,0,0,0,1.69-8.31q0-7.91-9.15-7.91H307.78a10.26,10.26,0,0,0-4.92,1.23A7.79,7.79,0,0,0,299,18.72l-3,8.53h41.83c.8,0,2.94.29,3.82,1.39h0a3.94,3.94,0,0,1,.47,2,4,4,0,0,1-.31,1.53l-8.07,23.06A8.89,8.89,0,0,1,332,58.38a5.88,5.88,0,0,1-4.23,1.39h-22.3c-1.84,0-2.77-1.05-2.77-3.15A4.21,4.21,0,0,1,303,55l6.09-17.49H292.45L286.4,54.85l-1.31,3.23a23.72,23.72,0,0,0-1.77,8.22q0,7.92,9.23,7.92h44.53a10.5,10.5,0,0,0,4.84-1.15A8.1,8.1,0,0,0,345.84,68.53Zm72.65,0L432.4,29.18a27,27,0,0,0,1.7-8.31Q434.1,13,425,13H380.42a10.32,10.32,0,0,0-4.92,1.23,7.79,7.79,0,0,0-3.85,4.53l-3,8.53h41.84c.79,0,2.93.29,3.81,1.39h0a3.94,3.94,0,0,1,.47,2,4.16,4.16,0,0,1-.3,1.53l-8.08,23.06a8.89,8.89,0,0,1-1.77,3.15,5.88,5.88,0,0,1-4.23,1.39h-22.3c-1.84,0-2.77-1.05-2.77-3.15a4.4,4.4,0,0,1,.31-1.62l6.09-17.49H365.09l-6,17.34-1.31,3.23A24,24,0,0,0,356,66.3q0,7.92,9.23,7.92h44.53a10.47,10.47,0,0,0,4.84-1.15A8.16,8.16,0,0,0,418.49,68.53Zm88.23-47.66q0-7.91-9.23-7.91H446.2L424.82,74.22h16.77L456.2,32c1.07-3.08,3.13-4.61,6.15-4.61h22.23c1.84,0,2.76,1.07,2.76,3.23a4.16,4.16,0,0,1-.3,1.53L472.43,74.22H489l16-45A26,26,0,0,0,506.72,20.87Z" transform="translate(-7.56 -12.8)"/></svg>